<svg width="40" height="50" viewBox="0 0 80 100" xmlns="http://www.w3.org/2000/svg">
  <defs>
    <filter id="bloom" x="-40%" y="-40%" width="180%" height="180%">
      <feGaussianBlur stdDeviation="1.1"/>
    </filter>
    <filter id="paper" x="-20%" y="-20%" width="140%" height="140%">
      <feTurbulence type="fractalNoise" baseFrequency="0.9" numOctaves="2" seed="7" result="n"/>
      <feDisplacementMap in="SourceGraphic" in2="n" scale="2.2"/>
    </filter>
  </defs>
  <g filter="url(#paper)">
    <path d="M40 5 C19 5 5 21 5 40 C5 67 40 95 40 95 C40 95 75 67 75 40 C75 21 61 5 40 5 Z" fill="#5f8a5e" fill-opacity="0.85"/>
    <path d="M40 5 C19 5 5 21 5 40 C5 67 40 95 40 95 C40 95 75 67 75 40 C75 21 61 5 40 5 Z" fill="#86ab74" fill-opacity="0.35" filter="url(#bloom)" transform="translate(-1.5,-2) scale(0.97)"/>
  </g>
  <g transform="translate(40,40) scale(1.0)" filter="url(#paper)">
    <rect x="-2.4" y="6" width="4.8" height="13" rx="1.6" fill="#eef3e6" fill-opacity="0.9"/>
    <g fill="#eef3e6">
      <circle cx="0" cy="-8" r="11.5" fill-opacity="0.85"/>
      <circle cx="-9" cy="0.5" r="9.5" fill-opacity="0.7"/>
      <circle cx="9" cy="0.5" r="9.5" fill-opacity="0.7"/>
      <circle cx="0" cy="-2" r="8" fill-opacity="0.5" filter="url(#bloom)"/>
    </g>
  </g>  <g transform="translate(62,18)" filter="url(#paper)">
    <circle r="14" fill="#ffffff" fill-opacity="0.9"/>
    <circle r="11" fill="#c0584f" fill-opacity="0.85"/>
    <circle r="9" fill="#d97a6e" fill-opacity="0.4" filter="url(#bloom)"/>
  </g>
</svg>
